<svg fill="none" xmlns="http://www.w3.org/2000/svg" viewBox="0 0 25 25" class="design-iconfont">
  <path fill-rule="evenodd" clip-rule="evenodd" d="M18.3384 16.502C15.4523 20.4023 9.95081 21.2245 6.05046 18.3384C2.15011 15.4523 1.32791 9.95081 4.21402 6.05046C7.10012 2.15011 12.6016 1.32791 16.502 4.21402C20.4023 7.10012 21.2245 12.6016 18.3384 16.502ZM18.3219 20.0829C14.4247 23.205 8.77257 23.4504 4.5693 20.3401C-0.43655 16.636 -1.4918 9.57515 2.21233 4.5693C5.91647 -0.436551 12.9773 -1.4918 17.9831 2.21233C22.989 5.91647 24.0442 12.9773 20.3401 17.9831C20.2554 18.0976 20.169 18.21 20.0809 18.3203L24.5272 22.7666L22.7664 24.5273L18.3219 20.0829Z" fill="#4A63D8"/>
</svg>
