<svg width="105" height="24" viewBox="0 0 105 24" fill="none" xmlns="http://www.w3.org/2000/svg">
<path d="M16.9588 16.5V7.77273H20.1548C20.7741 7.77273 21.2869 7.875 21.6932 8.07955C22.0994 8.28125 22.4034 8.5554 22.6051 8.90199C22.8068 9.24574 22.9077 9.63352 22.9077 10.0653C22.9077 10.429 22.8409 10.7358 22.7074 10.9858C22.5739 11.233 22.3949 11.4318 22.1705 11.5824C21.9489 11.7301 21.7045 11.8381 21.4375 11.9062V11.9915C21.7273 12.0057 22.0099 12.0994 22.2855 12.2727C22.5639 12.4432 22.794 12.6861 22.9759 13.0014C23.1577 13.3168 23.2486 13.7003 23.2486 14.152C23.2486 14.598 23.1435 14.9986 22.9332 15.3537C22.7259 15.706 22.4048 15.9858 21.9702 16.1932C21.5355 16.3977 20.9801 16.5 20.304 16.5H16.9588ZM18.2756 15.3707H20.1761C20.8068 15.3707 21.2585 15.2486 21.5312 15.0043C21.804 14.7599 21.9403 14.4545 21.9403 14.0881C21.9403 13.8125 21.8707 13.5597 21.7315 13.3295C21.5923 13.0994 21.3935 12.9162 21.1349 12.7798C20.8793 12.6435 20.5753 12.5753 20.223 12.5753H18.2756V15.3707ZM18.2756 11.5483H20.0398C20.3352 11.5483 20.6009 11.4915 20.8366 11.3778C21.0753 11.2642 21.2642 11.1051 21.4034 10.9006C21.5455 10.6932 21.6165 10.4489 21.6165 10.1676C21.6165 9.80682 21.4901 9.50426 21.2372 9.25994C20.9844 9.01562 20.5966 8.89347 20.0739 8.89347H18.2756V11.5483ZM28.8544 13.7855V9.95455H30.1328V16.5H28.88V15.3665H28.8118C28.6612 15.7159 28.4197 16.0071 28.0874 16.2401C27.7578 16.4702 27.3473 16.5852 26.8558 16.5852C26.4354 16.5852 26.0632 16.4929 25.7393 16.3082C25.4183 16.1207 25.1655 15.8438 24.9808 15.4773C24.799 15.1108 24.7081 14.6577 24.7081 14.1179V9.95455H25.9822V13.9645C25.9822 14.4105 26.1058 14.7656 26.353 15.0298C26.6001 15.294 26.9212 15.4261 27.3161 15.4261C27.5547 15.4261 27.7919 15.3665 28.0277 15.2472C28.2663 15.1278 28.4638 14.9474 28.62 14.706C28.7791 14.4645 28.8572 14.1577 28.8544 13.7855ZM34.9002 9.95455V10.9773H31.3249V9.95455H34.9002ZM32.2837 8.38636H33.5579V14.5781C33.5579 14.8253 33.5948 15.0114 33.6687 15.1364C33.7425 15.2585 33.8377 15.3423 33.9542 15.3878C34.0735 15.4304 34.2028 15.4517 34.342 15.4517C34.4442 15.4517 34.5337 15.4446 34.6104 15.4304C34.6871 15.4162 34.7468 15.4048 34.7894 15.3963L35.0195 16.4489C34.9457 16.4773 34.8406 16.5057 34.7042 16.5341C34.5678 16.5653 34.3974 16.5824 34.1928 16.5852C33.8576 16.5909 33.5451 16.5312 33.2553 16.4062C32.9656 16.2812 32.7312 16.0881 32.5522 15.8267C32.3732 15.5653 32.2837 15.2372 32.2837 14.8423V8.38636ZM39.3651 9.95455V10.9773H35.7898V9.95455H39.3651ZM36.7486 8.38636H38.0227V14.5781C38.0227 14.8253 38.0597 15.0114 38.1335 15.1364C38.2074 15.2585 38.3026 15.3423 38.419 15.3878C38.5384 15.4304 38.6676 15.4517 38.8068 15.4517C38.9091 15.4517 38.9986 15.4446 39.0753 15.4304C39.152 15.4162 39.2116 15.4048 39.2543 15.3963L39.4844 16.4489C39.4105 16.4773 39.3054 16.5057 39.169 16.5341C39.0327 16.5653 38.8622 16.5824 38.6577 16.5852C38.3224 16.5909 38.0099 16.5312 37.7202 16.4062C37.4304 16.2812 37.196 16.0881 37.017 15.8267C36.8381 15.5653 36.7486 15.2372 36.7486 14.8423V8.38636ZM43.4613 16.6321C42.8477 16.6321 42.3121 16.4915 41.8548 16.2102C41.3974 15.929 41.0423 15.5355 40.7894 15.0298C40.5366 14.5241 40.4102 13.9332 40.4102 13.2571C40.4102 12.5781 40.5366 11.9844 40.7894 11.4759C41.0423 10.9673 41.3974 10.5724 41.8548 10.2912C42.3121 10.0099 42.8477 9.86932 43.4613 9.86932C44.0749 9.86932 44.6104 10.0099 45.0678 10.2912C45.5252 10.5724 45.8803 10.9673 46.1332 11.4759C46.386 11.9844 46.5124 12.5781 46.5124 13.2571C46.5124 13.9332 46.386 14.5241 46.1332 15.0298C45.8803 15.5355 45.5252 15.929 45.0678 16.2102C44.6104 16.4915 44.0749 16.6321 43.4613 16.6321ZM43.4656 15.5625C43.8633 15.5625 44.1928 15.4574 44.4542 15.2472C44.7156 15.0369 44.9087 14.7571 45.0337 14.4077C45.1616 14.0582 45.2255 13.6733 45.2255 13.2528C45.2255 12.8352 45.1616 12.4517 45.0337 12.1023C44.9087 11.75 44.7156 11.4673 44.4542 11.2543C44.1928 11.0412 43.8633 10.9347 43.4656 10.9347C43.065 10.9347 42.7326 11.0412 42.4684 11.2543C42.207 11.4673 42.0124 11.75 41.8846 12.1023C41.7596 12.4517 41.6971 12.8352 41.6971 13.2528C41.6971 13.6733 41.7596 14.0582 41.8846 14.4077C42.0124 14.7571 42.207 15.0369 42.4684 15.2472C42.7326 15.4574 43.065 15.5625 43.4656 15.5625ZM49.2088 12.6136V16.5H47.9347V9.95455H49.1577V11.0199H49.2386C49.3892 10.6733 49.625 10.3949 49.946 10.1847C50.2699 9.97443 50.6776 9.86932 51.169 9.86932C51.6151 9.86932 52.0057 9.96307 52.3409 10.1506C52.6761 10.3352 52.9361 10.6108 53.1207 10.9773C53.3054 11.3437 53.3977 11.7969 53.3977 12.3366V16.5H52.1236V12.4901C52.1236 12.0156 52 11.6449 51.7528 11.3778C51.5057 11.108 51.1662 10.973 50.7344 10.973C50.4389 10.973 50.1761 11.0369 49.946 11.1648C49.7188 11.2926 49.5384 11.4801 49.4048 11.7273C49.2741 11.9716 49.2088 12.267 49.2088 12.6136ZM58.3846 16.5V7.77273H59.7013V15.3665H63.6559V16.5H58.3846ZM66.9606 16.6449C66.5458 16.6449 66.1708 16.5682 65.8356 16.4148C65.5004 16.2585 65.2347 16.0327 65.0387 15.7372C64.8455 15.4418 64.7489 15.0795 64.7489 14.6506C64.7489 14.2812 64.82 13.9773 64.962 13.7386C65.104 13.5 65.2958 13.3111 65.5373 13.1719C65.7788 13.0327 66.0487 12.9276 66.3469 12.8565C66.6452 12.7855 66.9492 12.7315 67.2589 12.6946C67.6509 12.6491 67.9691 12.6122 68.2134 12.5838C68.4577 12.5526 68.6353 12.5028 68.7461 12.4347C68.8569 12.3665 68.9123 12.2557 68.9123 12.1023V12.0724C68.9123 11.7003 68.8072 11.4119 68.5969 11.2074C68.3896 11.0028 68.0799 10.9006 67.668 10.9006C67.239 10.9006 66.9009 10.9957 66.6538 11.1861C66.4094 11.3736 66.2404 11.5824 66.1467 11.8125L64.9492 11.5398C65.0913 11.142 65.2987 10.821 65.5714 10.5767C65.8469 10.3295 66.1637 10.1506 66.5217 10.0398C66.8796 9.92614 67.256 9.86932 67.6509 9.86932C67.9123 9.86932 68.1893 9.90057 68.4819 9.96307C68.7773 10.0227 69.0529 10.1335 69.3086 10.2955C69.5671 10.4574 69.7788 10.6889 69.9435 10.9901C70.1083 11.2884 70.1907 11.6761 70.1907 12.1534V16.5H68.9464V15.6051H68.8952C68.8129 15.7699 68.6893 15.9318 68.5245 16.0909C68.3597 16.25 68.1481 16.3821 67.8896 16.4872C67.631 16.5923 67.3214 16.6449 66.9606 16.6449ZM67.2376 15.6222C67.5898 15.6222 67.891 15.5526 68.141 15.4134C68.3938 15.2741 68.5856 15.0923 68.7163 14.8679C68.8498 14.6406 68.9165 14.3977 68.9165 14.1392V13.2955C68.8711 13.3409 68.783 13.3835 68.6523 13.4233C68.5245 13.4602 68.3782 13.4929 68.2134 13.5213C68.0487 13.5469 67.8881 13.571 67.7319 13.5938C67.5756 13.6136 67.445 13.6307 67.3398 13.6449C67.0927 13.6761 66.8668 13.7287 66.6623 13.8026C66.4606 13.8764 66.2987 13.983 66.1765 14.1222C66.0572 14.2585 65.9975 14.4403 65.9975 14.6676C65.9975 14.983 66.114 15.2216 66.3469 15.3835C66.5799 15.5426 66.8768 15.6222 67.2376 15.6222ZM71.9901 16.5V7.77273H73.2642V11.0156H73.3409C73.4148 10.8793 73.5213 10.7216 73.6605 10.5426C73.7997 10.3636 73.9929 10.2074 74.2401 10.0739C74.4872 9.9375 74.8139 9.86932 75.2202 9.86932C75.7486 9.86932 76.2202 10.0028 76.6349 10.2699C77.0497 10.5369 77.375 10.9219 77.6108 11.4247C77.8494 11.9276 77.9688 12.5327 77.9688 13.2401C77.9688 13.9474 77.8509 14.554 77.6151 15.0597C77.3793 15.5625 77.0554 15.9503 76.6435 16.223C76.2315 16.4929 75.7614 16.6278 75.233 16.6278C74.8352 16.6278 74.5099 16.5611 74.2571 16.4276C74.0071 16.294 73.8111 16.1378 73.669 15.9588C73.527 15.7798 73.4176 15.6207 73.3409 15.4815H73.2344V16.5H71.9901ZM73.2386 13.2273C73.2386 13.6875 73.3054 14.0909 73.4389 14.4375C73.5724 14.7841 73.7656 15.0554 74.0185 15.2514C74.2713 15.4446 74.581 15.5412 74.9474 15.5412C75.3281 15.5412 75.6463 15.4403 75.902 15.2386C76.1577 15.0341 76.3509 14.7571 76.4815 14.4077C76.6151 14.0582 76.6818 13.6648 76.6818 13.2273C76.6818 12.7955 76.6165 12.4077 76.4858 12.0639C76.358 11.7202 76.1648 11.4489 75.9062 11.25C75.6506 11.0511 75.331 10.9517 74.9474 10.9517C74.5781 10.9517 74.2656 11.0469 74.0099 11.2372C73.7571 11.4276 73.5653 11.6932 73.4347 12.0341C73.304 12.375 73.2386 12.7727 73.2386 13.2273ZM82.2205 16.6321C81.5756 16.6321 81.0202 16.4943 80.5543 16.2188C80.0913 15.9403 79.7333 15.5497 79.4805 15.0469C79.2305 14.5412 79.1055 13.9489 79.1055 13.2699C79.1055 12.5994 79.2305 12.0085 79.4805 11.4972C79.7333 10.9858 80.0856 10.5866 80.5373 10.2997C80.9918 10.0128 81.5231 9.86932 82.131 9.86932C82.5004 9.86932 82.8583 9.9304 83.2049 10.0526C83.5515 10.1747 83.8626 10.3665 84.1381 10.6278C84.4137 10.8892 84.631 11.2287 84.7901 11.6463C84.9492 12.0611 85.0288 12.5653 85.0288 13.1591V13.6108H79.8256V12.6562H83.7802C83.7802 12.321 83.712 12.0241 83.5756 11.7656C83.4393 11.5043 83.2475 11.2983 83.0004 11.1477C82.756 10.9972 82.4691 10.9219 82.1396 10.9219C81.7816 10.9219 81.4691 11.0099 81.2021 11.1861C80.9379 11.3594 80.7333 11.5866 80.5884 11.8679C80.4464 12.1463 80.3754 12.4489 80.3754 12.7756V13.5213C80.3754 13.9588 80.4521 14.331 80.6055 14.6378C80.7617 14.9446 80.979 15.179 81.2575 15.3409C81.5359 15.5 81.8612 15.5795 82.2333 15.5795C82.4748 15.5795 82.695 15.5455 82.8938 15.4773C83.0927 15.4062 83.2646 15.3011 83.4094 15.1619C83.5543 15.0227 83.6651 14.8509 83.7418 14.6463L84.9478 14.8636C84.8512 15.2187 84.6779 15.5298 84.4279 15.7969C84.1808 16.0611 83.8697 16.267 83.4947 16.4148C83.1225 16.5597 82.6978 16.6321 82.2205 16.6321ZM87.7166 7.77273V16.5H86.4425V7.77273H87.7166Z" fill="#6D0A0A"/>
<rect x="0.5" y="0.5" width="104" height="23" rx="11.5" stroke="#6D0A0A"/>
</svg>
